# xmcd
#
# Track frame offsets:
#	150
#	21033
#	47814
#	64990
#	81433
#	103981
#	131924
#	154474
#	174729
#	192162
#	211554
#	229646
#	241371
#	265302
#	288687
#	305040
#	327453
#
# Disc length: 4582 seconds
#
# Revision: 0
# Processed by: cddbd v1.5.2PL0 Copyright (c) Steve Scherf et al.
# Submitted via: EasyCDDAExtractor 16.0.9.1
#
DISCID=0711e411
DTITLE=Various Artist - Tau Khuc Vang Vol. 8 - Trinh Cong Son 2
DYEAR=1900
DGENRE=Blues
TTITLE0=Dem Thay Ta La Thac Do
TTITLE1=Ru Em Tung Ngon Xuan Nong
TTITLE2=Quynh Huong
TTITLE3=Ben Doi Hiu Quanh
TTITLE4=Co Xot Xa Dua
TTITLE5=Tinh Xa
TTITLE6=Con Tuoi Nao Cho Em
TTITLE7=Hay Yeu Nhau Di
TTITLE8=Ru Em
TTITLE9=Nghe Nhung Tan Phai
TTITLE10=Loi Buon Thanh 
TTITLE11=Ngau Nhien
TTITLE12=Mot Coi Di Ve
TTITLE13=Ve Tham Mai Truong Xua
TTITLE14=Nguon Coi
TTITLE15=Tuoi Da Buon
TTITLE16=Tinh Xot Xa Vua
EXTD=
EXTT0=
EXTT1=
EXTT2=
EXTT3=
EXTT4=
EXTT5=
EXTT6=
EXTT7=
EXTT8=
EXTT9=
EXTT10=
EXTT11=
EXTT12=
EXTT13=
EXTT14=
EXTT15=
EXTT16=
PLAYORDER=
